<mxfile host="app.diagrams.net" modified="2023-12-29T13:27:26.359Z" agent="Mozilla/5.0 (Macintosh; Intel Mac OS X 10_15_7) AppleWebKit/605.1.15 (KHTML, like Gecko) Version/17.2.1 Safari/605.1.15" version="22.1.16" etag="yhoCWWWDgTFF6ZyJ9ZUF" type="github">
  <diagram name="ページ1" id="-b6YMepr3NDHEzUj5DE4">
    <mxGraphModel>
      <root>
        <mxCell id="0" />
        <mxCell id="1" parent="0" />
        <mxCell id="2" value="Input Layer" style="whiteSpace=wrap;strokeWidth=2;" vertex="1" parent="1">
          <mxGeometry width="96" height="34" as="geometry" />
        </mxCell>
        <mxCell id="3" value="Hidden Layer 1" style="whiteSpace=wrap;strokeWidth=2;" vertex="1" parent="1">
          <mxGeometry x="146" width="123" height="34" as="geometry" />
        </mxCell>
        <mxCell id="4" value="Hidden Layer 2" style="whiteSpace=wrap;strokeWidth=2;" vertex="1" parent="1">
          <mxGeometry x="319" width="123" height="34" as="geometry" />
        </mxCell>
        <mxCell id="5" value="Output Layer" style="whiteSpace=wrap;strokeWidth=2;" vertex="1" parent="1">
          <mxGeometry x="492" width="109" height="34" as="geometry" />
        </mxCell>
        <mxCell id="6" value="" style="curved=1;startArrow=none;endArrow=block;exitX=1.0037434895833333;exitY=0.49402573529411764;entryX=0.0029217479674796746;entryY=0.49402573529411764;" edge="1" parent="1" source="2" target="3">
          <mxGeometry relative="1" as="geometry">
            <Array as="points" />
          </mxGeometry>
        </mxCell>
        <mxCell id="7" value="" style="curved=1;startArrow=none;endArrow=block;exitX=1.0005081300813008;exitY=0.49402573529411764;entryX=0.0005081300813008131;entryY=0.49402573529411764;" edge="1" parent="1" source="3" target="4">
          <mxGeometry relative="1" as="geometry">
            <Array as="points" />
          </mxGeometry>
        </mxCell>
        <mxCell id="8" value="" style="curved=1;startArrow=none;endArrow=block;exitX=0.9980945121951219;exitY=0.49402573529411764;entryX=-0.0021502293577981653;entryY=0.49402573529411764;" edge="1" parent="1" source="4" target="5">
          <mxGeometry relative="1" as="geometry">
            <Array as="points" />
          </mxGeometry>
        </mxCell>
      </root>
    </mxGraphModel>
  </diagram>
</mxfile>
